<mxfile host="app.diagrams.net" modified="2023-10-04T21:31:50.992Z" agent="Mozilla/5.0 (Windows NT 10.0; Win64; x64) AppleWebKit/537.36 (KHTML, like Gecko) Chrome/117.0.0.0 Safari/537.36" etag="3JD3dRXRXZnUnpSJN7Sb" version="22.0.2" type="device">
  <diagram name="Page-1" id="HSDrtA4u5hBo2z6ZAdqC">
    <mxGraphModel dx="1050" dy="542" grid="1" gridSize="10" guides="1" tooltips="1" connect="1" arrows="1" fold="1" page="1" pageScale="1" pageWidth="827" pageHeight="1169" math="0" shadow="0">
      <root>
        <mxCell id="0" />
        <mxCell id="1" parent="0" />
        <mxCell id="wjzpxgiNpIkZOhdxWT5r-30" value="" style="rounded=1;whiteSpace=wrap;html=1;arcSize=7;strokeWidth=2;fillColor=none;" parent="1" vertex="1">
          <mxGeometry x="180" y="330" width="480" height="411" as="geometry" />
        </mxCell>
        <mxCell id="wjzpxgiNpIkZOhdxWT5r-123" value="" style="rounded=1;whiteSpace=wrap;html=1;fillColor=none;strokeWidth=2;" parent="1" vertex="1">
          <mxGeometry x="525" y="520" width="120" height="180" as="geometry" />
        </mxCell>
        <mxCell id="wjzpxgiNpIkZOhdxWT5r-121" value="" style="rounded=1;whiteSpace=wrap;html=1;fillColor=none;strokeWidth=2;" parent="1" vertex="1">
          <mxGeometry x="525" y="397" width="120" height="110" as="geometry" />
        </mxCell>
        <mxCell id="wjzpxgiNpIkZOhdxWT5r-120" style="edgeStyle=orthogonalEdgeStyle;rounded=0;orthogonalLoop=1;jettySize=auto;html=1;exitX=1;exitY=0.5;exitDx=0;exitDy=0;entryX=0;entryY=0.5;entryDx=0;entryDy=0;startArrow=classicThin;startFill=1;endArrow=classicThin;endFill=1;fillColor=#d5e8d4;gradientColor=#97d077;strokeColor=#82b366;strokeWidth=2;" parent="1" source="wjzpxgiNpIkZOhdxWT5r-119" target="wjzpxgiNpIkZOhdxWT5r-3" edge="1">
          <mxGeometry relative="1" as="geometry" />
        </mxCell>
        <mxCell id="wjzpxgiNpIkZOhdxWT5r-128" style="edgeStyle=orthogonalEdgeStyle;rounded=0;orthogonalLoop=1;jettySize=auto;html=1;exitX=0.5;exitY=0;exitDx=0;exitDy=0;entryX=0.004;entryY=0.543;entryDx=0;entryDy=0;entryPerimeter=0;fillColor=#d5e8d4;gradientColor=#97d077;strokeColor=#82b366;startArrow=classicThin;startFill=1;endArrow=classicThin;endFill=1;strokeWidth=2;" parent="1" source="wjzpxgiNpIkZOhdxWT5r-119" target="wjzpxgiNpIkZOhdxWT5r-19" edge="1">
          <mxGeometry relative="1" as="geometry" />
        </mxCell>
        <mxCell id="wjzpxgiNpIkZOhdxWT5r-119" value="&lt;b&gt;Ambiente&lt;/b&gt;" style="rounded=1;whiteSpace=wrap;html=1;strokeWidth=2;fillColor=none;" parent="1" vertex="1">
          <mxGeometry x="60" y="636" width="90" height="40" as="geometry" />
        </mxCell>
        <mxCell id="wjzpxgiNpIkZOhdxWT5r-31" value="Penguin Logger" style="text;html=1;strokeColor=none;fillColor=none;align=center;verticalAlign=middle;whiteSpace=wrap;rounded=0;fontSize=14;fontStyle=1" parent="1" vertex="1">
          <mxGeometry x="355" y="340" width="117.5" height="30" as="geometry" />
        </mxCell>
        <mxCell id="wjzpxgiNpIkZOhdxWT5r-7" value="Sensor de conductividad" style="rounded=1;whiteSpace=wrap;html=1;strokeWidth=2;fillColor=none;fontStyle=1" parent="1" vertex="1">
          <mxGeometry x="540" y="555.5" width="90" height="51" as="geometry" />
        </mxCell>
        <mxCell id="jRFfbKt7LwgTbRpsBP53-32" style="edgeStyle=orthogonalEdgeStyle;rounded=0;orthogonalLoop=1;jettySize=auto;html=1;exitX=1;exitY=0.25;exitDx=0;exitDy=0;entryX=0.75;entryY=0;entryDx=0;entryDy=0;startArrow=classicThin;startFill=1;endArrow=classicThin;endFill=1;strokeWidth=2;strokeColor=#ff0000;" parent="1" source="wjzpxgiNpIkZOhdxWT5r-26" target="jRFfbKt7LwgTbRpsBP53-15" edge="1">
          <mxGeometry relative="1" as="geometry">
            <Array as="points">
              <mxPoint x="690" y="446" />
              <mxPoint x="690" y="430" />
              <mxPoint x="1023" y="430" />
            </Array>
          </mxGeometry>
        </mxCell>
        <mxCell id="wjzpxgiNpIkZOhdxWT5r-26" value="Interfaz de alimentación externa" style="rounded=1;whiteSpace=wrap;html=1;strokeWidth=2;fillColor=none;fontStyle=1" parent="1" vertex="1">
          <mxGeometry x="540" y="431" width="90" height="60" as="geometry" />
        </mxCell>
        <mxCell id="wjzpxgiNpIkZOhdxWT5r-42" value="" style="group;strokeWidth=2;" parent="1" vertex="1" connectable="0">
          <mxGeometry x="205" y="381" width="280" height="340" as="geometry" />
        </mxCell>
        <mxCell id="wjzpxgiNpIkZOhdxWT5r-19" value="" style="rounded=1;whiteSpace=wrap;html=1;arcSize=7;fillColor=none;strokeWidth=2;" parent="wjzpxgiNpIkZOhdxWT5r-42" vertex="1">
          <mxGeometry width="280" height="340" as="geometry" />
        </mxCell>
        <mxCell id="wjzpxgiNpIkZOhdxWT5r-12" value="Pilas" style="rounded=1;whiteSpace=wrap;html=1;strokeWidth=2;fillColor=none;fontStyle=1" parent="wjzpxgiNpIkZOhdxWT5r-42" vertex="1">
          <mxGeometry x="20" y="60" width="52.5" height="40" as="geometry" />
        </mxCell>
        <mxCell id="wjzpxgiNpIkZOhdxWT5r-13" value="Sensor de alimentación externa" style="rounded=1;whiteSpace=wrap;html=1;strokeWidth=2;fillColor=none;fontStyle=1" parent="wjzpxgiNpIkZOhdxWT5r-42" vertex="1">
          <mxGeometry x="170" y="50" width="90" height="60" as="geometry" />
        </mxCell>
        <mxCell id="wjzpxgiNpIkZOhdxWT5r-32" value="" style="group" parent="wjzpxgiNpIkZOhdxWT5r-42" vertex="1" connectable="0">
          <mxGeometry x="20" y="130" width="240" height="190" as="geometry" />
        </mxCell>
        <mxCell id="wjzpxgiNpIkZOhdxWT5r-1" value="" style="rounded=1;whiteSpace=wrap;html=1;arcSize=8;fillColor=none;strokeWidth=2;" parent="wjzpxgiNpIkZOhdxWT5r-32" vertex="1">
          <mxGeometry width="240" height="190" as="geometry" />
        </mxCell>
        <mxCell id="wjzpxgiNpIkZOhdxWT5r-2" value="Memoria&lt;br&gt;FRAM" style="rounded=1;whiteSpace=wrap;html=1;fillColor=none;strokeWidth=2;fontStyle=1" parent="wjzpxgiNpIkZOhdxWT5r-32" vertex="1">
          <mxGeometry x="140" y="120" width="80" height="50" as="geometry" />
        </mxCell>
        <mxCell id="wjzpxgiNpIkZOhdxWT5r-3" value="Sensor de temperatura" style="rounded=1;whiteSpace=wrap;html=1;fillColor=none;strokeWidth=2;fontStyle=1" parent="wjzpxgiNpIkZOhdxWT5r-32" vertex="1">
          <mxGeometry x="20" y="120" width="90" height="50" as="geometry" />
        </mxCell>
        <mxCell id="wjzpxgiNpIkZOhdxWT5r-4" value="Real Time&lt;br&gt;Clock" style="rounded=1;whiteSpace=wrap;html=1;fillColor=none;strokeWidth=2;fontStyle=1" parent="wjzpxgiNpIkZOhdxWT5r-32" vertex="1">
          <mxGeometry x="20" y="50" width="90" height="40" as="geometry" />
        </mxCell>
        <mxCell id="wjzpxgiNpIkZOhdxWT5r-5" value="Microprocesador" style="text;html=1;strokeColor=none;fillColor=none;align=center;verticalAlign=middle;whiteSpace=wrap;rounded=0;fontSize=13;fontStyle=1" parent="wjzpxgiNpIkZOhdxWT5r-32" vertex="1">
          <mxGeometry x="60" y="10" width="120" height="30" as="geometry" />
        </mxCell>
        <mxCell id="wjzpxgiNpIkZOhdxWT5r-8" style="edgeStyle=orthogonalEdgeStyle;rounded=0;orthogonalLoop=1;jettySize=auto;html=1;exitX=0.5;exitY=1;exitDx=0;exitDy=0;entryX=0.5;entryY=0;entryDx=0;entryDy=0;startArrow=classicThin;startFill=1;endArrow=classicThin;endFill=1;fillColor=#1ba1e2;strokeColor=#006EAF;strokeWidth=2;" parent="wjzpxgiNpIkZOhdxWT5r-32" source="wjzpxgiNpIkZOhdxWT5r-6" target="wjzpxgiNpIkZOhdxWT5r-2" edge="1">
          <mxGeometry relative="1" as="geometry">
            <Array as="points">
              <mxPoint x="180" y="110" />
              <mxPoint x="180" y="110" />
            </Array>
          </mxGeometry>
        </mxCell>
        <mxCell id="wjzpxgiNpIkZOhdxWT5r-6" value="Firmware" style="rounded=1;whiteSpace=wrap;html=1;fillColor=none;strokeWidth=2;fontStyle=1" parent="wjzpxgiNpIkZOhdxWT5r-32" vertex="1">
          <mxGeometry x="140" y="50" width="80" height="40" as="geometry" />
        </mxCell>
        <mxCell id="wjzpxgiNpIkZOhdxWT5r-9" style="edgeStyle=orthogonalEdgeStyle;rounded=0;orthogonalLoop=1;jettySize=auto;html=1;exitX=0.5;exitY=0;exitDx=0;exitDy=0;entryX=0.25;entryY=1;entryDx=0;entryDy=0;fillColor=#1ba1e2;strokeColor=#006EAF;endArrow=classicThin;endFill=1;strokeWidth=2;" parent="wjzpxgiNpIkZOhdxWT5r-32" source="wjzpxgiNpIkZOhdxWT5r-3" target="wjzpxgiNpIkZOhdxWT5r-6" edge="1">
          <mxGeometry relative="1" as="geometry">
            <Array as="points">
              <mxPoint x="65" y="110" />
              <mxPoint x="160" y="110" />
            </Array>
          </mxGeometry>
        </mxCell>
        <mxCell id="wjzpxgiNpIkZOhdxWT5r-10" style="edgeStyle=orthogonalEdgeStyle;rounded=0;orthogonalLoop=1;jettySize=auto;html=1;exitX=1;exitY=0.5;exitDx=0;exitDy=0;entryX=0;entryY=0.5;entryDx=0;entryDy=0;fillColor=#1ba1e2;strokeColor=#006EAF;endArrow=classicThin;endFill=1;strokeWidth=2;" parent="wjzpxgiNpIkZOhdxWT5r-32" source="wjzpxgiNpIkZOhdxWT5r-4" target="wjzpxgiNpIkZOhdxWT5r-6" edge="1">
          <mxGeometry relative="1" as="geometry" />
        </mxCell>
        <mxCell id="wjzpxgiNpIkZOhdxWT5r-17" style="edgeStyle=orthogonalEdgeStyle;rounded=0;orthogonalLoop=1;jettySize=auto;html=1;exitX=0.5;exitY=1;exitDx=0;exitDy=0;strokeColor=#ff0000;entryX=0.11;entryY=-0.001;entryDx=0;entryDy=0;entryPerimeter=0;endArrow=classicThin;endFill=1;strokeWidth=2;" parent="wjzpxgiNpIkZOhdxWT5r-42" source="wjzpxgiNpIkZOhdxWT5r-12" target="wjzpxgiNpIkZOhdxWT5r-1" edge="1">
          <mxGeometry relative="1" as="geometry">
            <mxPoint x="59" y="130" as="targetPoint" />
            <Array as="points" />
          </mxGeometry>
        </mxCell>
        <mxCell id="wjzpxgiNpIkZOhdxWT5r-15" style="edgeStyle=orthogonalEdgeStyle;rounded=0;orthogonalLoop=1;jettySize=auto;html=1;exitX=0.5;exitY=1;exitDx=0;exitDy=0;entryX=0.683;entryY=0.015;entryDx=0;entryDy=0;strokeColor=#006EAF;fillColor=#1ba1e2;entryPerimeter=0;endArrow=classicThin;endFill=1;strokeWidth=2;" parent="wjzpxgiNpIkZOhdxWT5r-42" source="wjzpxgiNpIkZOhdxWT5r-13" target="wjzpxgiNpIkZOhdxWT5r-6" edge="1">
          <mxGeometry relative="1" as="geometry" />
        </mxCell>
        <mxCell id="wjzpxgiNpIkZOhdxWT5r-21" value="Poteo de resina" style="text;html=1;strokeColor=none;fillColor=none;align=center;verticalAlign=middle;whiteSpace=wrap;rounded=0;fontSize=13;fontStyle=1" parent="wjzpxgiNpIkZOhdxWT5r-42" vertex="1">
          <mxGeometry x="86.25" y="10" width="107.5" height="30" as="geometry" />
        </mxCell>
        <mxCell id="wjzpxgiNpIkZOhdxWT5r-36" value="Led indicador" style="rounded=1;whiteSpace=wrap;html=1;strokeWidth=2;fillColor=none;fontStyle=1" parent="wjzpxgiNpIkZOhdxWT5r-42" vertex="1">
          <mxGeometry x="87" y="60" width="67.5" height="40" as="geometry" />
        </mxCell>
        <mxCell id="wjzpxgiNpIkZOhdxWT5r-39" style="edgeStyle=orthogonalEdgeStyle;rounded=0;orthogonalLoop=1;jettySize=auto;html=1;startArrow=classicThin;startFill=1;endArrow=none;endFill=0;fillColor=#1ba1e2;strokeColor=#ff0000;strokeWidth=2;" parent="wjzpxgiNpIkZOhdxWT5r-42" edge="1">
          <mxGeometry relative="1" as="geometry">
            <mxPoint x="106.71428571428567" y="130" as="targetPoint" />
            <mxPoint x="107" y="100" as="sourcePoint" />
            <Array as="points">
              <mxPoint x="107" y="110" />
            </Array>
          </mxGeometry>
        </mxCell>
        <mxCell id="wjzpxgiNpIkZOhdxWT5r-38" style="edgeStyle=orthogonalEdgeStyle;rounded=0;orthogonalLoop=1;jettySize=auto;html=1;exitX=0.5;exitY=0;exitDx=0;exitDy=0;fillColor=#1ba1e2;strokeColor=#006EAF;endArrow=classicThin;endFill=1;strokeWidth=2;" parent="wjzpxgiNpIkZOhdxWT5r-42" source="wjzpxgiNpIkZOhdxWT5r-6" edge="1">
          <mxGeometry relative="1" as="geometry">
            <mxPoint x="135" y="100" as="targetPoint" />
            <Array as="points">
              <mxPoint x="200" y="120" />
              <mxPoint x="135" y="120" />
            </Array>
          </mxGeometry>
        </mxCell>
        <mxCell id="wjzpxgiNpIkZOhdxWT5r-27" style="edgeStyle=orthogonalEdgeStyle;rounded=0;orthogonalLoop=1;jettySize=auto;html=1;exitX=0;exitY=0.75;exitDx=0;exitDy=0;fillColor=#f8cecc;gradientColor=#ea6b66;strokeColor=#ff0800;entryX=1.001;entryY=0.158;entryDx=0;entryDy=0;entryPerimeter=0;endArrow=classicThin;endFill=1;strokeWidth=2;" parent="1" source="wjzpxgiNpIkZOhdxWT5r-26" target="wjzpxgiNpIkZOhdxWT5r-1" edge="1">
          <mxGeometry relative="1" as="geometry">
            <mxPoint x="485" y="481" as="targetPoint" />
            <Array as="points">
              <mxPoint x="505" y="476" />
              <mxPoint x="505" y="541" />
            </Array>
          </mxGeometry>
        </mxCell>
        <mxCell id="wjzpxgiNpIkZOhdxWT5r-11" style="edgeStyle=orthogonalEdgeStyle;rounded=0;orthogonalLoop=1;jettySize=auto;html=1;exitX=0;exitY=0.5;exitDx=0;exitDy=0;entryX=1;entryY=0.5;entryDx=0;entryDy=0;strokeColor=#006EAF;fillColor=#1ba1e2;endArrow=classicThin;endFill=1;strokeWidth=2;" parent="1" source="wjzpxgiNpIkZOhdxWT5r-7" target="wjzpxgiNpIkZOhdxWT5r-6" edge="1">
          <mxGeometry relative="1" as="geometry" />
        </mxCell>
        <mxCell id="wjzpxgiNpIkZOhdxWT5r-46" style="edgeStyle=orthogonalEdgeStyle;rounded=0;orthogonalLoop=1;jettySize=auto;html=1;exitX=0;exitY=0.5;exitDx=0;exitDy=0;entryX=1;entryY=0.5;entryDx=0;entryDy=0;strokeWidth=2;endArrow=classicThin;endFill=1;fillColor=#1ba1e2;strokeColor=#006EAF;" parent="1" source="wjzpxgiNpIkZOhdxWT5r-26" target="wjzpxgiNpIkZOhdxWT5r-13" edge="1">
          <mxGeometry relative="1" as="geometry" />
        </mxCell>
        <mxCell id="wjzpxgiNpIkZOhdxWT5r-29" style="edgeStyle=orthogonalEdgeStyle;rounded=0;orthogonalLoop=1;jettySize=auto;html=1;exitX=-0.004;exitY=0.416;exitDx=0;exitDy=0;fillColor=#fff2cc;strokeColor=#d6b656;endArrow=classicThin;endFill=1;startArrow=classicThin;startFill=1;gradientColor=#ffd966;entryX=1.001;entryY=0.191;entryDx=0;entryDy=0;entryPerimeter=0;strokeWidth=2;exitPerimeter=0;" parent="1" source="wjzpxgiNpIkZOhdxWT5r-121" edge="1">
          <mxGeometry relative="1" as="geometry">
            <mxPoint x="485.28" y="442.93999999999994" as="targetPoint" />
            <Array as="points" />
          </mxGeometry>
        </mxCell>
        <mxCell id="jRFfbKt7LwgTbRpsBP53-33" style="edgeStyle=orthogonalEdgeStyle;rounded=0;orthogonalLoop=1;jettySize=auto;html=1;exitX=1;exitY=0.75;exitDx=0;exitDy=0;entryX=0.25;entryY=0;entryDx=0;entryDy=0;endArrow=classicThin;endFill=1;startArrow=classicThin;startFill=1;fillColor=#b1ddf0;strokeColor=#10739e;strokeWidth=2;" parent="1" source="wjzpxgiNpIkZOhdxWT5r-110" target="jRFfbKt7LwgTbRpsBP53-15" edge="1">
          <mxGeometry relative="1" as="geometry">
            <Array as="points">
              <mxPoint x="720" y="671" />
              <mxPoint x="720" y="440" />
              <mxPoint x="967" y="440" />
            </Array>
          </mxGeometry>
        </mxCell>
        <mxCell id="jRFfbKt7LwgTbRpsBP53-34" style="edgeStyle=orthogonalEdgeStyle;rounded=0;orthogonalLoop=1;jettySize=auto;html=1;exitX=1;exitY=0.25;exitDx=0;exitDy=0;startArrow=classicThin;startFill=1;endArrow=none;endFill=0;strokeWidth=2;strokeColor=#ff0000;" parent="1" source="wjzpxgiNpIkZOhdxWT5r-110" edge="1">
          <mxGeometry relative="1" as="geometry">
            <mxPoint x="689.9999999999998" y="440" as="targetPoint" />
          </mxGeometry>
        </mxCell>
        <mxCell id="wjzpxgiNpIkZOhdxWT5r-110" value="Interfaz de comunicación serie" style="rounded=1;whiteSpace=wrap;html=1;strokeWidth=2;fillColor=none;fontStyle=1" parent="1" vertex="1">
          <mxGeometry x="540" y="626" width="90" height="60" as="geometry" />
        </mxCell>
        <mxCell id="wjzpxgiNpIkZOhdxWT5r-111" style="edgeStyle=orthogonalEdgeStyle;rounded=0;orthogonalLoop=1;jettySize=auto;html=1;entryX=0.75;entryY=1;entryDx=0;entryDy=0;endArrow=classicThin;endFill=1;startArrow=classicThin;startFill=1;fillColor=#1ba1e2;strokeColor=#006EAF;strokeWidth=2;" parent="1" target="wjzpxgiNpIkZOhdxWT5r-6" edge="1">
          <mxGeometry relative="1" as="geometry">
            <mxPoint x="540" y="650" as="sourcePoint" />
            <Array as="points">
              <mxPoint x="500" y="650" />
              <mxPoint x="500" y="620" />
              <mxPoint x="425" y="620" />
            </Array>
          </mxGeometry>
        </mxCell>
        <mxCell id="wjzpxgiNpIkZOhdxWT5r-122" value="&lt;b&gt;Pines A&lt;/b&gt;" style="text;html=1;strokeColor=none;fillColor=none;align=center;verticalAlign=middle;whiteSpace=wrap;rounded=0;" parent="1" vertex="1">
          <mxGeometry x="555" y="401" width="60" height="30" as="geometry" />
        </mxCell>
        <mxCell id="wjzpxgiNpIkZOhdxWT5r-24" style="edgeStyle=orthogonalEdgeStyle;rounded=0;orthogonalLoop=1;jettySize=auto;html=1;exitX=-0.001;exitY=0.41;exitDx=0;exitDy=0;fillColor=#fff2cc;strokeColor=#d6b656;endArrow=classicThin;endFill=1;startArrow=classicThin;startFill=1;gradientColor=#ffd966;strokeWidth=2;exitPerimeter=0;" parent="1" source="wjzpxgiNpIkZOhdxWT5r-123" edge="1">
          <mxGeometry relative="1" as="geometry">
            <mxPoint x="485" y="594" as="targetPoint" />
          </mxGeometry>
        </mxCell>
        <mxCell id="wjzpxgiNpIkZOhdxWT5r-124" value="&lt;b&gt;Pines B&lt;/b&gt;" style="text;html=1;strokeColor=none;fillColor=none;align=center;verticalAlign=middle;whiteSpace=wrap;rounded=0;" parent="1" vertex="1">
          <mxGeometry x="555" y="525.5" width="60" height="30" as="geometry" />
        </mxCell>
        <mxCell id="jRFfbKt7LwgTbRpsBP53-1" value="" style="rounded=1;whiteSpace=wrap;html=1;arcSize=8;fillColor=none;strokeWidth=2;strokeColor=#000000;" parent="1" vertex="1">
          <mxGeometry x="760" y="330" width="490" height="420" as="geometry" />
        </mxCell>
        <mxCell id="jRFfbKt7LwgTbRpsBP53-2" value="" style="rounded=1;whiteSpace=wrap;html=1;arcSize=8;fillColor=none;strokeWidth=2;" parent="1" vertex="1">
          <mxGeometry x="910" y="390" width="320" height="340" as="geometry" />
        </mxCell>
        <mxCell id="jRFfbKt7LwgTbRpsBP53-3" value="" style="rounded=1;whiteSpace=wrap;html=1;arcSize=8;fillColor=none;strokeWidth=2;" parent="1" vertex="1">
          <mxGeometry x="1090" y="430" width="120" height="190" as="geometry" />
        </mxCell>
        <mxCell id="jRFfbKt7LwgTbRpsBP53-4" style="edgeStyle=orthogonalEdgeStyle;rounded=0;orthogonalLoop=1;jettySize=auto;html=1;entryX=1;entryY=0.75;entryDx=0;entryDy=0;endArrow=classicThin;endFill=1;startArrow=classicThin;startFill=1;strokeWidth=2;fillColor=#fad9d5;strokeColor=#ff0000;exitX=1;exitY=0.25;exitDx=0;exitDy=0;" parent="1" source="jRFfbKt7LwgTbRpsBP53-7" target="jRFfbKt7LwgTbRpsBP53-53" edge="1">
          <mxGeometry relative="1" as="geometry">
            <mxPoint x="1200" y="590" as="sourcePoint" />
            <mxPoint x="1290" y="590" as="targetPoint" />
            <Array as="points">
              <mxPoint x="1290" y="560" />
              <mxPoint x="1290" y="1071" />
            </Array>
          </mxGeometry>
        </mxCell>
        <mxCell id="jRFfbKt7LwgTbRpsBP53-7" value="&lt;b&gt;Puerto&lt;br&gt;USB&lt;br&gt;&lt;/b&gt;" style="rounded=1;whiteSpace=wrap;html=1;fillColor=none;strokeWidth=2;" parent="1" vertex="1">
          <mxGeometry x="1100" y="545" width="100" height="61" as="geometry" />
        </mxCell>
        <mxCell id="jRFfbKt7LwgTbRpsBP53-8" value="&lt;b&gt;Interfaz&lt;br&gt;UART&lt;br&gt;ESP32 - Logger&lt;br&gt;&lt;/b&gt;" style="rounded=1;whiteSpace=wrap;html=1;fillColor=none;strokeWidth=2;" parent="1" vertex="1">
          <mxGeometry x="940" y="560" width="110" height="60" as="geometry" />
        </mxCell>
        <mxCell id="jRFfbKt7LwgTbRpsBP53-9" value="&lt;b&gt;Firmware&lt;/b&gt;" style="rounded=1;whiteSpace=wrap;html=1;fillColor=none;strokeWidth=2;" parent="1" vertex="1">
          <mxGeometry x="940" y="666" width="110" height="40" as="geometry" />
        </mxCell>
        <mxCell id="jRFfbKt7LwgTbRpsBP53-10" value="&lt;b&gt;Alimentación&lt;br&gt;5V&lt;br&gt;&lt;/b&gt;" style="rounded=1;whiteSpace=wrap;html=1;fillColor=none;strokeWidth=2;" parent="1" vertex="1">
          <mxGeometry x="1100" y="470" width="100" height="60" as="geometry" />
        </mxCell>
        <mxCell id="jRFfbKt7LwgTbRpsBP53-11" value="ESP32" style="text;html=1;strokeColor=none;fillColor=none;align=center;verticalAlign=middle;whiteSpace=wrap;rounded=0;fontStyle=1;fontSize=13;" parent="1" vertex="1">
          <mxGeometry x="1034" y="400" width="60" height="30" as="geometry" />
        </mxCell>
        <mxCell id="jRFfbKt7LwgTbRpsBP53-12" value="Alimentación externa" style="rounded=1;whiteSpace=wrap;html=1;fontStyle=1;fillColor=none;strokeWidth=2;" parent="1" vertex="1">
          <mxGeometry x="1290" y="470" width="110" height="60" as="geometry" />
        </mxCell>
        <mxCell id="jRFfbKt7LwgTbRpsBP53-13" value="" style="endArrow=classicThin;startArrow=classicThin;html=1;rounded=0;fillColor=#e51400;strokeColor=#ff0000;exitX=0;exitY=0.5;exitDx=0;exitDy=0;strokeWidth=2;startFill=1;endFill=1;entryX=1;entryY=0.5;entryDx=0;entryDy=0;" parent="1" source="jRFfbKt7LwgTbRpsBP53-12" target="jRFfbKt7LwgTbRpsBP53-10" edge="1">
          <mxGeometry width="50" height="50" relative="1" as="geometry">
            <mxPoint x="1200" y="469.65999999999997" as="sourcePoint" />
            <mxPoint x="1200" y="470" as="targetPoint" />
            <Array as="points" />
          </mxGeometry>
        </mxCell>
        <mxCell id="jRFfbKt7LwgTbRpsBP53-14" style="edgeStyle=orthogonalEdgeStyle;rounded=0;orthogonalLoop=1;jettySize=auto;html=1;exitX=0.75;exitY=1;exitDx=0;exitDy=0;entryX=0.5;entryY=0;entryDx=0;entryDy=0;startArrow=classicThin;startFill=1;endArrow=classicThin;endFill=1;strokeWidth=2;strokeColor=#FF0000;" parent="1" source="jRFfbKt7LwgTbRpsBP53-15" target="jRFfbKt7LwgTbRpsBP53-9" edge="1">
          <mxGeometry relative="1" as="geometry">
            <Array as="points">
              <mxPoint x="1023" y="540" />
              <mxPoint x="1070" y="540" />
              <mxPoint x="1070" y="640" />
              <mxPoint x="995" y="640" />
            </Array>
          </mxGeometry>
        </mxCell>
        <mxCell id="jRFfbKt7LwgTbRpsBP53-15" value="&lt;b&gt;Pines de conexionado de base&lt;br&gt;&lt;/b&gt;" style="rounded=1;whiteSpace=wrap;html=1;fillColor=none;strokeWidth=2;" parent="1" vertex="1">
          <mxGeometry x="940" y="460" width="110" height="60" as="geometry" />
        </mxCell>
        <mxCell id="jRFfbKt7LwgTbRpsBP53-16" value="&lt;font style=&quot;font-size: 14px;&quot;&gt;Penguin Base&lt;/font&gt;" style="text;html=1;strokeColor=none;fillColor=none;align=center;verticalAlign=middle;whiteSpace=wrap;rounded=0;fontStyle=1;fontSize=13;" parent="1" vertex="1">
          <mxGeometry x="950" y="340" width="110" height="30" as="geometry" />
        </mxCell>
        <mxCell id="jRFfbKt7LwgTbRpsBP53-17" value="&lt;b&gt;Circuito de generación de flanco y LEDs&lt;br&gt;&lt;/b&gt;" style="rounded=1;whiteSpace=wrap;html=1;fillColor=none;strokeWidth=2;" parent="1" vertex="1">
          <mxGeometry x="780" y="460" width="100" height="60" as="geometry" />
        </mxCell>
        <mxCell id="jRFfbKt7LwgTbRpsBP53-35" style="edgeStyle=orthogonalEdgeStyle;rounded=0;orthogonalLoop=1;jettySize=auto;html=1;exitX=0;exitY=0.5;exitDx=0;exitDy=0;entryX=1.003;entryY=0.685;entryDx=0;entryDy=0;entryPerimeter=0;startArrow=classicThin;startFill=1;endArrow=classicThin;endFill=1;fillColor=#fff2cc;strokeColor=#d6b656;strokeWidth=2;gradientColor=#ffd966;" parent="1" source="jRFfbKt7LwgTbRpsBP53-18" target="wjzpxgiNpIkZOhdxWT5r-30" edge="1">
          <mxGeometry relative="1" as="geometry">
            <mxPoint x="680" y="610" as="targetPoint" />
          </mxGeometry>
        </mxCell>
        <mxCell id="jRFfbKt7LwgTbRpsBP53-18" value="&lt;b&gt;Carcasa mecánica&lt;br&gt;&lt;/b&gt;" style="rounded=1;whiteSpace=wrap;html=1;fillColor=none;strokeWidth=2;" parent="1" vertex="1">
          <mxGeometry x="780" y="581" width="100" height="60" as="geometry" />
        </mxCell>
        <mxCell id="jRFfbKt7LwgTbRpsBP53-19" value="" style="endArrow=classicThin;startArrow=classicThin;html=1;rounded=0;fillColor=#e3c800;strokeColor=#d6b655;entryX=1;entryY=0.25;entryDx=0;entryDy=0;strokeWidth=2;exitX=0;exitY=0.25;exitDx=0;exitDy=0;edgeStyle=orthogonalEdgeStyle;startFill=1;endFill=1;" parent="1" source="jRFfbKt7LwgTbRpsBP53-15" target="jRFfbKt7LwgTbRpsBP53-17" edge="1">
          <mxGeometry width="50" height="50" relative="1" as="geometry">
            <mxPoint x="930" y="475" as="sourcePoint" />
            <mxPoint x="949" y="590" as="targetPoint" />
          </mxGeometry>
        </mxCell>
        <mxCell id="jRFfbKt7LwgTbRpsBP53-20" value="" style="endArrow=classicThin;startArrow=classicThin;html=1;rounded=0;fillColor=#e51400;strokeColor=#ff0000;strokeWidth=2;entryX=0.75;entryY=0;entryDx=0;entryDy=0;startFill=1;endFill=1;" parent="1" target="jRFfbKt7LwgTbRpsBP53-18" edge="1">
          <mxGeometry width="50" height="50" relative="1" as="geometry">
            <mxPoint x="855" y="520" as="sourcePoint" />
            <mxPoint x="1190" y="395" as="targetPoint" />
            <Array as="points" />
          </mxGeometry>
        </mxCell>
        <mxCell id="jRFfbKt7LwgTbRpsBP53-21" value="" style="endArrow=classicThin;startArrow=classicThin;html=1;rounded=0;fillColor=#e3c800;strokeColor=#d6b655;entryX=0.25;entryY=1;entryDx=0;entryDy=0;strokeWidth=2;startFill=1;endFill=1;" parent="1" target="jRFfbKt7LwgTbRpsBP53-17" edge="1">
          <mxGeometry width="50" height="50" relative="1" as="geometry">
            <mxPoint x="805" y="580" as="sourcePoint" />
            <mxPoint x="890" y="525" as="targetPoint" />
            <Array as="points" />
          </mxGeometry>
        </mxCell>
        <mxCell id="jRFfbKt7LwgTbRpsBP53-22" value="" style="endArrow=classicThin;startArrow=classicThin;html=1;rounded=0;entryX=0.25;entryY=0;entryDx=0;entryDy=0;exitX=0.25;exitY=1;exitDx=0;exitDy=0;fillColor=#dae8fc;strokeColor=#006eaf;strokeWidth=2;edgeStyle=orthogonalEdgeStyle;endFill=1;startFill=1;" parent="1" source="jRFfbKt7LwgTbRpsBP53-15" target="jRFfbKt7LwgTbRpsBP53-8" edge="1">
          <mxGeometry width="50" height="50" relative="1" as="geometry">
            <mxPoint x="1120" y="545" as="sourcePoint" />
            <mxPoint x="1019" y="510" as="targetPoint" />
          </mxGeometry>
        </mxCell>
        <mxCell id="jRFfbKt7LwgTbRpsBP53-23" value="" style="endArrow=classicThin;startArrow=classicThin;html=1;rounded=0;fillColor=#e51400;strokeColor=#ff0000;strokeWidth=2;entryX=0;entryY=0.75;entryDx=0;entryDy=0;exitX=1;exitY=0.75;exitDx=0;exitDy=0;startFill=1;endFill=1;" parent="1" source="jRFfbKt7LwgTbRpsBP53-17" target="jRFfbKt7LwgTbRpsBP53-15" edge="1">
          <mxGeometry width="50" height="50" relative="1" as="geometry">
            <mxPoint x="840" y="470" as="sourcePoint" />
            <mxPoint x="930" y="505" as="targetPoint" />
            <Array as="points" />
          </mxGeometry>
        </mxCell>
        <mxCell id="jRFfbKt7LwgTbRpsBP53-24" value="&lt;b&gt;Conector USB C&lt;/b&gt;" style="text;html=1;strokeColor=none;fillColor=none;align=center;verticalAlign=middle;whiteSpace=wrap;rounded=0;" parent="1" vertex="1">
          <mxGeometry x="1120" y="434" width="60" height="30" as="geometry" />
        </mxCell>
        <mxCell id="jRFfbKt7LwgTbRpsBP53-25" value="" style="endArrow=classicThin;startArrow=classicThin;html=1;rounded=0;entryX=0.25;entryY=0;entryDx=0;entryDy=0;exitX=0.25;exitY=1;exitDx=0;exitDy=0;fillColor=#dae8fc;strokeColor=#006eaf;strokeWidth=2;edgeStyle=orthogonalEdgeStyle;startFill=1;endFill=1;" parent="1" source="jRFfbKt7LwgTbRpsBP53-8" target="jRFfbKt7LwgTbRpsBP53-9" edge="1">
          <mxGeometry width="50" height="50" relative="1" as="geometry">
            <mxPoint x="978" y="530" as="sourcePoint" />
            <mxPoint x="978" y="570" as="targetPoint" />
          </mxGeometry>
        </mxCell>
        <mxCell id="jRFfbKt7LwgTbRpsBP53-26" style="edgeStyle=orthogonalEdgeStyle;rounded=0;orthogonalLoop=1;jettySize=auto;html=1;exitX=1;exitY=0.25;exitDx=0;exitDy=0;entryX=1;entryY=0.75;entryDx=0;entryDy=0;startArrow=classicThin;startFill=1;endArrow=classicThin;endFill=1;strokeWidth=2;strokeColor=#10739e;fillColor=#b1ddf0;" parent="1" source="jRFfbKt7LwgTbRpsBP53-53" target="jRFfbKt7LwgTbRpsBP53-7" edge="1">
          <mxGeometry relative="1" as="geometry">
            <mxPoint x="1290" y="560" as="sourcePoint" />
            <Array as="points">
              <mxPoint x="1270" y="1044" />
              <mxPoint x="1270" y="591" />
            </Array>
          </mxGeometry>
        </mxCell>
        <mxCell id="jRFfbKt7LwgTbRpsBP53-28" style="edgeStyle=orthogonalEdgeStyle;rounded=0;orthogonalLoop=1;jettySize=auto;html=1;exitX=0;exitY=0.75;exitDx=0;exitDy=0;entryX=1;entryY=0.75;entryDx=0;entryDy=0;endArrow=classicThin;endFill=1;startArrow=classicThin;startFill=1;strokeWidth=2;fillColor=#b1ddf0;strokeColor=#10739e;" parent="1" source="jRFfbKt7LwgTbRpsBP53-29" target="jRFfbKt7LwgTbRpsBP53-9" edge="1">
          <mxGeometry relative="1" as="geometry" />
        </mxCell>
        <mxCell id="jRFfbKt7LwgTbRpsBP53-29" value="&lt;b&gt;Conversor&lt;br&gt;UART&amp;nbsp;- USB&lt;br&gt;&lt;/b&gt;" style="rounded=1;whiteSpace=wrap;html=1;fillColor=none;strokeWidth=2;" parent="1" vertex="1">
          <mxGeometry x="1100" y="650" width="100" height="61" as="geometry" />
        </mxCell>
        <mxCell id="jRFfbKt7LwgTbRpsBP53-5" style="edgeStyle=orthogonalEdgeStyle;rounded=0;orthogonalLoop=1;jettySize=auto;html=1;exitX=0.25;exitY=1;exitDx=0;exitDy=0;entryX=0.25;entryY=0;entryDx=0;entryDy=0;startArrow=classicThin;startFill=1;endArrow=openThin;endFill=0;fillColor=#b1ddf0;strokeColor=#10739e;strokeWidth=2;" parent="1" source="jRFfbKt7LwgTbRpsBP53-7" target="jRFfbKt7LwgTbRpsBP53-29" edge="1">
          <mxGeometry relative="1" as="geometry" />
        </mxCell>
        <mxCell id="jRFfbKt7LwgTbRpsBP53-6" style="edgeStyle=orthogonalEdgeStyle;rounded=0;orthogonalLoop=1;jettySize=auto;html=1;exitX=0.75;exitY=1;exitDx=0;exitDy=0;entryX=0.75;entryY=0;entryDx=0;entryDy=0;startArrow=classicThin;startFill=1;endArrow=classicThin;endFill=1;strokeWidth=2;strokeColor=#ff0000;" parent="1" source="jRFfbKt7LwgTbRpsBP53-7" target="jRFfbKt7LwgTbRpsBP53-29" edge="1">
          <mxGeometry relative="1" as="geometry" />
        </mxCell>
        <mxCell id="jRFfbKt7LwgTbRpsBP53-36" value="" style="rounded=1;whiteSpace=wrap;html=1;arcSize=7;strokeWidth=2;fillColor=none;" parent="1" vertex="1">
          <mxGeometry x="470" y="780" width="540" height="500" as="geometry" />
        </mxCell>
        <mxCell id="jRFfbKt7LwgTbRpsBP53-37" value="" style="rounded=1;whiteSpace=wrap;html=1;arcSize=7;strokeWidth=2;fillColor=none;" parent="1" vertex="1">
          <mxGeometry x="500" y="840" width="350" height="411" as="geometry" />
        </mxCell>
        <mxCell id="jRFfbKt7LwgTbRpsBP53-38" value="" style="rounded=1;whiteSpace=wrap;html=1;fontStyle=0;fillColor=none;strokeWidth=2;" parent="1" vertex="1">
          <mxGeometry x="528.13" y="1070" width="291.87" height="150" as="geometry" />
        </mxCell>
        <mxCell id="jRFfbKt7LwgTbRpsBP53-39" value="&lt;b&gt;Base de Datos&lt;/b&gt;&lt;br&gt;SQLite" style="rounded=1;whiteSpace=wrap;html=1;strokeWidth=2;fillColor=none;" parent="1" vertex="1">
          <mxGeometry x="550" y="1134.5" width="120" height="60" as="geometry" />
        </mxCell>
        <mxCell id="jRFfbKt7LwgTbRpsBP53-40" value="Comunicación USB - Base&lt;br&gt;&lt;span style=&quot;font-weight: normal;&quot;&gt;UART&lt;/span&gt;" style="rounded=1;whiteSpace=wrap;html=1;fillColor=none;strokeWidth=2;fontStyle=1" parent="1" vertex="1">
          <mxGeometry x="690" y="1127.25" width="110" height="74.5" as="geometry" />
        </mxCell>
        <mxCell id="jRFfbKt7LwgTbRpsBP53-41" value="&lt;font style=&quot;font-size: 13px;&quot;&gt;&lt;b&gt;Backend&lt;/b&gt;&lt;br&gt;Python&lt;br&gt;&lt;/font&gt;" style="text;html=1;strokeColor=none;fillColor=none;align=center;verticalAlign=middle;whiteSpace=wrap;rounded=0;" parent="1" vertex="1">
          <mxGeometry x="645" y="1085" width="60" height="30" as="geometry" />
        </mxCell>
        <mxCell id="jRFfbKt7LwgTbRpsBP53-42" value="" style="group" parent="1" vertex="1" connectable="0">
          <mxGeometry x="528.13" y="880" width="291.87" height="145" as="geometry" />
        </mxCell>
        <mxCell id="jRFfbKt7LwgTbRpsBP53-43" value="" style="group" parent="jRFfbKt7LwgTbRpsBP53-42" vertex="1" connectable="0">
          <mxGeometry y="20" width="291.87" height="145" as="geometry" />
        </mxCell>
        <mxCell id="jRFfbKt7LwgTbRpsBP53-44" value="" style="rounded=1;whiteSpace=wrap;html=1;fillColor=none;strokeWidth=2;" parent="jRFfbKt7LwgTbRpsBP53-43" vertex="1">
          <mxGeometry width="291.87" height="145" as="geometry" />
        </mxCell>
        <mxCell id="jRFfbKt7LwgTbRpsBP53-45" value="&lt;b&gt;Interfaz Gráfica&lt;/b&gt;" style="rounded=1;whiteSpace=wrap;html=1;fillColor=none;strokeWidth=2;" parent="jRFfbKt7LwgTbRpsBP53-43" vertex="1">
          <mxGeometry x="21.870000000000005" y="60" width="110" height="60" as="geometry" />
        </mxCell>
        <mxCell id="jRFfbKt7LwgTbRpsBP53-46" value="&lt;font style=&quot;font-size: 13px;&quot;&gt;&lt;b&gt;Frontend&lt;/b&gt;&lt;br&gt;Tkinter&lt;br&gt;&lt;/font&gt;" style="text;html=1;strokeColor=none;fillColor=none;align=center;verticalAlign=middle;whiteSpace=wrap;rounded=0;" parent="jRFfbKt7LwgTbRpsBP53-43" vertex="1">
          <mxGeometry x="116.87" y="20" width="60" height="30" as="geometry" />
        </mxCell>
        <mxCell id="jRFfbKt7LwgTbRpsBP53-47" value="&lt;b&gt;Gráficos de datos&lt;/b&gt;" style="rounded=1;whiteSpace=wrap;html=1;fillColor=none;strokeWidth=2;" parent="jRFfbKt7LwgTbRpsBP53-43" vertex="1">
          <mxGeometry x="166.87" y="60" width="95" height="60" as="geometry" />
        </mxCell>
        <mxCell id="jRFfbKt7LwgTbRpsBP53-48" value="PinGUI" style="text;html=1;strokeColor=none;fillColor=none;align=center;verticalAlign=middle;whiteSpace=wrap;rounded=0;fontStyle=1;fontSize=14;" parent="1" vertex="1">
          <mxGeometry x="644.0699999999999" y="855" width="60" height="30" as="geometry" />
        </mxCell>
        <mxCell id="jRFfbKt7LwgTbRpsBP53-49" style="edgeStyle=orthogonalEdgeStyle;rounded=0;orthogonalLoop=1;jettySize=auto;html=1;exitX=0;exitY=0.5;exitDx=0;exitDy=0;startArrow=classicThin;startFill=1;endArrow=classicThin;endFill=1;fillColor=#b1ddf0;strokeColor=#10739e;strokeWidth=2;" parent="1" source="jRFfbKt7LwgTbRpsBP53-51" target="jRFfbKt7LwgTbRpsBP53-40" edge="1">
          <mxGeometry relative="1" as="geometry" />
        </mxCell>
        <mxCell id="jRFfbKt7LwgTbRpsBP53-50" style="edgeStyle=orthogonalEdgeStyle;rounded=0;orthogonalLoop=1;jettySize=auto;html=1;exitX=0.5;exitY=0;exitDx=0;exitDy=0;entryX=0.5;entryY=1;entryDx=0;entryDy=0;fillColor=#b1ddf0;strokeColor=#10739e;strokeWidth=2;endArrow=classicThin;endFill=1;startArrow=classicThin;startFill=1;" parent="1" source="jRFfbKt7LwgTbRpsBP53-51" target="jRFfbKt7LwgTbRpsBP53-53" edge="1">
          <mxGeometry relative="1" as="geometry" />
        </mxCell>
        <mxCell id="jRFfbKt7LwgTbRpsBP53-51" value="&lt;b&gt;USB to UART &lt;br&gt;VCP Driver&lt;/b&gt;&lt;br&gt;CP210x" style="rounded=1;whiteSpace=wrap;html=1;strokeWidth=2;fillColor=none;" parent="1" vertex="1">
          <mxGeometry x="880" y="1135" width="110" height="60" as="geometry" />
        </mxCell>
        <mxCell id="jRFfbKt7LwgTbRpsBP53-52" value="PC" style="text;html=1;strokeColor=none;fillColor=none;align=center;verticalAlign=middle;whiteSpace=wrap;rounded=0;fontStyle=1;fontSize=14;" parent="1" vertex="1">
          <mxGeometry x="715" y="790" width="60" height="30" as="geometry" />
        </mxCell>
        <mxCell id="jRFfbKt7LwgTbRpsBP53-53" value="&lt;b&gt;USB Port&lt;/b&gt;" style="rounded=1;whiteSpace=wrap;html=1;strokeWidth=2;fillColor=none;" parent="1" vertex="1">
          <mxGeometry x="880" y="1030" width="110" height="55" as="geometry" />
        </mxCell>
        <mxCell id="jRFfbKt7LwgTbRpsBP53-58" style="edgeStyle=orthogonalEdgeStyle;rounded=0;orthogonalLoop=1;jettySize=auto;html=1;exitX=1;exitY=0.5;exitDx=0;exitDy=0;entryX=0;entryY=0.5;entryDx=0;entryDy=0;startArrow=classicThin;startFill=1;endArrow=classicThin;endFill=1;strokeColor=#ff66ff;strokeWidth=2;" parent="1" source="jRFfbKt7LwgTbRpsBP53-57" target="jRFfbKt7LwgTbRpsBP53-44" edge="1">
          <mxGeometry relative="1" as="geometry" />
        </mxCell>
        <mxCell id="jRFfbKt7LwgTbRpsBP53-57" value="Usuario" style="rounded=1;whiteSpace=wrap;html=1;fontStyle=1;strokeWidth=2;fillColor=none;" parent="1" vertex="1">
          <mxGeometry x="310" y="942.5" width="110" height="60" as="geometry" />
        </mxCell>
      </root>
    </mxGraphModel>
  </diagram>
</mxfile>
